<?xml version="1.0" encoding="UTF-8"?>
<svg version="1.1" xmlns="http://www.w3.org/2000/svg" width="673" height="297">
<path d="M0 0 C6.76315582 6.58974157 8.49443869 13.35534968 8.75 22.5 C8.32601697 44.1480749 -1.22038857 64.31510132 -16.5625 79.375 C-20.93580021 83.15712119 -25.4827715 86.58934243 -30.5625 89.375 C-24.89165699 93.31993427 -20.44502608 94.41550788 -13.5625 93.375 C-5.40820275 90.98983079 0.988469 84.18659298 5.23828125 77.0546875 C6.09683604 75.46444971 6.93317039 73.8620676 7.75 72.25 C8.20511963 71.36618652 8.66023926 70.48237305 9.12915039 69.57177734 C13.09398839 61.5932114 16.31022502 53.35447196 19.375 45 C20.04752808 43.16671143 20.04752808 43.16671143 20.73364258 41.29638672 C25.75006943 27.21176723 29.76492733 13.43665737 29.4375 -1.625 C36.30342426 -2.13150261 41.78075673 -1.85446314 47.4375 2.375 C50.87588051 6.4467664 52.21890854 10.29753557 53.4375 15.375 C54.19933594 14.27091797 54.19933594 14.27091797 54.9765625 13.14453125 C63.19260204 1.49744898 63.19260204 1.49744898 69.4375 -1.625 C73.91291692 -2.17100086 77.51317389 -2.01606105 81.6875 -0.25 C86.35450106 4.20486465 89.19353354 9.54498909 89.75 16 C89.5953125 17.175625 89.5953125 17.175625 89.4375 18.375 C90.0975 18.375 90.7575 18.375 91.4375 18.375 C91.64375 17.715 91.85 17.055 92.0625 16.375 C95.39739477 9.09886595 101.17167475 2.00791263 108.4375 -1.625 C113.33064736 -2.20554291 116.27487235 -2.24919406 120.25 0.8125 C125.65763447 6.1213649 126.5888161 12.20777327 126.8125 19.5625 C126.28388234 38.54868438 117.90121051 55.68935522 110.22070312 72.68286133 C105.162934 83.58722922 105.162934 83.58722922 105.4375 95.375 C109.31932246 95.26082875 110.45759151 94.35451344 113.21875 91.5390625 C117.18741798 86.72816719 119.97276853 81.33984205 122.8125 75.8125 C123.38121826 74.71421875 123.94993652 73.6159375 124.53588867 72.484375 C128.5508654 64.55141545 131.79529843 56.54282305 134.69091797 48.14672852 C140.58879407 31.07286113 149.24477753 10.14861486 164.875 -0.1875 C169.3394276 -1.9889357 172.72193688 -2.93318848 177.4375 -1.625 C181.08586868 0.71892401 184.27422559 3.4164469 187.4375 6.375 C187.72367188 5.76140625 188.00984375 5.1478125 188.3046875 4.515625 C189.90548667 1.49066657 191.51053396 0.1566315 194.4375 -1.625 C197.24584877 -2.2446559 199.63548665 -2.2929547 202.4375 -1.625 C205.65704645 0.90953657 207.14182435 2.48797305 208.4375 6.375 C209.71109243 24.99867949 204.13760726 39.83123989 196.67382812 56.59179688 C194.58360208 61.29728206 192.54025677 66.02268788 190.5 70.75 C189.93406128 72.04188232 189.93406128 72.04188232 189.35668945 73.35986328 C186.28378674 80.46065601 184.11585105 86.49460075 184.4375 94.375 C187.37876805 95.72910428 187.37876805 95.72910428 189.88671875 94.29296875 C192.88425301 92.03908005 194.33153439 89.90648335 196.25 86.6875 C196.75539307 85.84070679 196.75539307 85.84070679 197.27099609 84.97680664 C201.01375533 78.59051764 204.26947708 71.95476879 207.50146484 65.29980469 C208.94223122 62.33710201 210.40728086 59.38694993 211.875 56.4375 C212.58462891 55.00083984 212.58462891 55.00083984 213.30859375 53.53515625 C214.4375 51.375 214.4375 51.375 215.4375 50.375 C217.8125 50.0625 217.8125 50.0625 220.4375 50.375 C222.60983868 52.0978893 223.31719672 53.48838927 223.68969727 56.23364258 C223.88362761 62.76017284 222.15818383 67.69690359 219.5625 73.625 C219.15902344 74.57375 218.75554687 75.5225 218.33984375 76.5 C217.06321921 79.46962509 215.75655346 82.42399678 214.4375 85.375 C214.02081055 86.31150391 213.60412109 87.24800781 213.17480469 88.21289062 C195.28362597 128.03654961 195.28362597 128.03654961 179.4375 134.375 C175.17190726 135.15813617 172.09012797 134.71386453 168.1875 132.6875 C162.31185682 127.74661824 160.02111421 122.45245381 157.4375 115.375 C157.08558594 116.08785156 156.73367188 116.80070312 156.37109375 117.53515625 C148.97976896 131.87394038 148.97976896 131.87394038 142.16796875 134.125 C138.50110515 134.70877928 136.09292082 134.63716833 132.625 133.25 C127.29470025 128.68117164 123.82164481 123.1727235 123.25390625 116.08203125 C123.25053753 114.17870637 123.33568201 112.27560254 123.4375 110.375 C120.89250711 112.74261459 119.01224091 115.31582278 117.0625 118.1875 C106.55799868 133.27538498 106.55799868 133.27538498 98.1328125 134.7890625 C93.24966794 134.96991971 89.47931787 134.28886869 85.4375 131.375 C77.97202684 120.59153876 78.31898661 108.11657961 80.36523438 95.65283203 C82.41914019 84.61869391 86.05894232 74.15071109 89.90771484 63.63818359 C94.0288129 52.29923161 94.0288129 52.29923161 95.4375 40.375 C88.27172931 42.64686806 85.38797752 48.77009958 81.9609375 55.10400391 C80.55572677 57.94002027 79.2307852 60.79876683 77.9375 63.6875 C77.46828125 64.72640381 76.9990625 65.76530762 76.515625 66.83569336 C72.10534251 76.79593471 68.42163391 86.90035468 65.4375 97.375 C65.24687988 98.03725586 65.05625977 98.69951172 64.85986328 99.38183594 C61.69016134 110.89429009 62.12118279 122.53824778 62.4375 134.375 C60.83996313 134.40550819 59.24225737 134.42725586 57.64453125 134.4453125 C56.75483643 134.45836426 55.8651416 134.47141602 54.94848633 134.48486328 C49.87430098 134.26285225 47.1817681 132.1192681 43.6875 128.625 C37.60765962 119.84300834 38.47802041 108.66140558 40.171875 98.5625 C42.63677767 85.88207875 46.91583596 73.89128566 51.6027832 61.89233398 C54.35448111 54.75584765 56.4368831 47.96975049 57.4375 40.375 C48.08419951 43.73904421 44.54148666 52.32847386 40.51953125 60.80078125 C34.15050649 74.61583495 29.03241208 88.59164496 25.4375 103.375 C25.19128906 104.31988281 24.94507813 105.26476562 24.69140625 106.23828125 C22.62086668 115.42005328 23.27260596 125.02184338 23.4375 134.375 C16.76256952 134.58485271 11.98061299 134.42235234 6.4375 130.375 C2.68387909 126.02870211 1.57457935 121.87088352 0.4375 116.375 C-0.54476562 117.46167969 -0.54476562 117.46167969 -1.546875 118.5703125 C-9.15484225 126.72361839 -17.75197155 133.60722538 -29.296875 134.61328125 C-38.17474913 134.83177815 -43.55927395 133.28119707 -50.1875 127.375 C-59.34368732 117.57077202 -62.83032226 103.46545048 -63.5625 90.375 C-63.61535156 89.53195313 -63.66820312 88.68890625 -63.72265625 87.8203125 C-64.56576908 61.35390104 -54.6562836 31.87819411 -36.5625 12.375 C-36.00175781 11.735625 -35.44101562 11.09625 -34.86328125 10.4375 C-26.03676292 0.89086946 -12.75600912 -5.81853047 0 0 Z M169.08984375 31.86328125 C158.61945826 47.7792573 147.50618043 72.1277289 148.4375 91.375 C149.0975 92.365 149.7575 93.355 150.4375 94.375 C153.59282211 94.45195908 155.70309429 93.99203493 158.1484375 91.9375 C168.36160264 80.10686526 172.04991226 61.98717136 176.8359375 47.48046875 C177.12130371 46.61574951 177.40666992 45.75103027 177.70068359 44.86010742 C179.27292899 39.55729565 181.02353614 32.54707229 178.4375 27.375 C173.81119498 26.42252544 171.85267112 28.28496285 169.08984375 31.86328125 Z M-26.5703125 35.2109375 C-36.12376899 45.58861377 -38.09192034 61.08268451 -37.703125 74.62109375 C-37.65671875 75.52988281 -37.6103125 76.43867188 -37.5625 77.375 C-29.3794422 75.16271984 -24.11758523 69.41182522 -19.65625 62.36328125 C-15.23458676 53.89926412 -11.46464576 44.11810293 -14.4375 34.5625 C-15.48820175 32.24567988 -15.48820175 32.24567988 -17.5625 30.375 C-21.86031879 30.375 -23.48942104 32.37832301 -26.5703125 35.2109375 Z " fill="#000000" transform="translate(449.5625,69.625)"/>
<path d="M0 0 C7.97733563 3.6123784 12.21467066 10.53781055 15.3125 18.5 C19.25739619 34.40442324 12.66185005 48.65526204 6.42382812 62.94189453 C4.53927859 67.2798361 2.70900876 71.64051218 0.875 76 C0.36223511 77.21055054 0.36223511 77.21055054 -0.16088867 78.44555664 C-0.47775635 79.19571045 -0.79462402 79.94586426 -1.12109375 80.71875 C-1.40009521 81.37810547 -1.67909668 82.03746094 -1.96655273 82.71679688 C-3.45877068 86.40767391 -3.79656112 89.22980445 -3.75 93.1875 C-3.74097656 94.18136719 -3.73195312 95.17523438 -3.72265625 96.19921875 C-3.71105469 96.95847656 -3.69945312 97.71773438 -3.6875 98.5 C2.61533971 97.89972955 6.57089378 95.56380337 10.65625 90.72265625 C11.3678125 89.67980469 12.079375 88.63695312 12.8125 87.5625 C13.5240625 86.54285156 14.235625 85.52320313 14.96875 84.47265625 C20.95173268 74.83979287 24.56337392 64.36883292 27.5625 53.5 C27.90023437 52.33210938 28.23796875 51.16421875 28.5859375 49.9609375 C32.77297084 35.09202383 35.63254059 19.59447231 31.5546875 4.390625 C31.47476563 3.76671875 31.39484375 3.1428125 31.3125 2.5 C34.19679668 -0.38429668 36.27338357 -0.30455888 40.3125 -0.5 C46.35552181 0.49532124 50.02544117 3.56704941 53.7734375 8.2734375 C60.11872935 17.45317444 61.35002219 27.08607868 59.375 38 C56.05326566 51.70970356 49.82047228 64.73724909 43.92700195 77.50097656 C40.88645449 84.15847118 39.00954969 90.07771741 39.3125 97.5 C43.99852174 96.75023652 46.38236814 95.91572657 49.2109375 92.03125 C52.51143569 87.40993194 55.20679354 82.53813391 57.8125 77.5 C58.29025879 76.58734375 58.76801758 75.6746875 59.26025391 74.734375 C62.76331078 67.90704945 65.54239283 61.04613833 67.8984375 53.75 C69.74884307 49.49713415 72.06154506 46.4914414 76.37890625 44.58984375 C80.75394759 44.386559 84.67681853 47.10485992 87.90625 49.859375 C91.24761783 53.47271463 92.02326892 56.67948204 92.3125 61.5 C91.44625 61.995 90.58 62.49 89.6875 63 C83.38869269 67.22898647 78.91949213 74.11047061 77.3125 81.5 C76.2339798 89.46906595 77.51290561 95.95509856 82.3125 102.5 C85.02025223 105.1025968 87.66839987 106.49711561 91.5390625 106.50390625 C93.98984785 106.25718514 93.98984785 106.25718514 97.3125 105.5 C106.73238028 84.64169367 97.20044544 61.8513583 91.11279297 41.3840332 C88.42687065 31.70471643 87.55752184 20.98217385 91.9296875 11.6875 C95.96954335 5.29676759 101.44314044 1.67153664 108.734375 -0.12890625 C116.27008855 -1.21359229 122.9972898 0.24318426 129.3125 4.5 C131.15343895 6.07666791 132.69633841 7.68181822 134.3125 9.5 C134.68375 8.13875 134.68375 8.13875 135.0625 6.75 C136.35231342 3.39648511 137.63221042 1.82291764 140.3125 -0.5 C141.3025 -0.17 142.2925 0.16 143.3125 0.5 C145.01908306 7.25090316 143.18145816 12.27735625 141 18.75 C137.41085516 29.61093929 134.94520705 39.76217693 135.125 51.25 C135.12564453 52.04792969 135.12628906 52.84585938 135.12695312 53.66796875 C135.16172329 58.37353118 135.53690086 62.85881477 136.3125 67.5 C134.3125 68.5 134.3125 68.5 132.54296875 67.93359375 C126.73282128 65.10073026 122.98989144 62.14029632 120.2109375 56.109375 C117.26842073 47.5632828 119.82481252 40.03045 123.17773438 32.07104492 C124.70378203 28.4158708 125.78990567 25.48335354 125.3125 21.5 C124.9825 21.17 124.6525 20.84 124.3125 20.5 C120.66890968 20.70624096 118.09398989 20.95729869 115.0625 23.0625 C110.52052034 29.38882882 109.43732039 35.83714303 110.3125 43.5 C112.60282241 52.85889542 116.35035445 61.52911161 120.375 70.25 C127.39456571 85.55453426 133.99513257 100.40102974 128.21484375 117.2890625 C125.22192273 124.62236682 119.74990498 130.17564501 112.76953125 133.83203125 C103.18305154 137.7468563 93.57621105 137.93114192 83.9765625 133.93359375 C73.29904767 128.18777565 67.28109435 118.88057375 63.68359375 107.51269531 C63.20482748 105.84789442 62.75565935 104.17463099 62.3125 102.5 C61.81621094 103.47839844 61.31992188 104.45679688 60.80859375 105.46484375 C47.00221228 132.27009591 47.00221228 132.27009591 34.3125 136.5 C29.06355833 136.89614654 25.75907906 136.36557317 21.3125 133.5 C14.87425999 126.70407999 14.16460792 119.17656005 14.25 110.125 C14.25902344 108.87976563 14.26804688 107.63453125 14.27734375 106.3515625 C14.28894531 105.41054687 14.30054688 104.46953125 14.3125 103.5 C14.04622803 103.99814209 13.77995605 104.49628418 13.50561523 105.00952148 C3.25165897 124.09419282 3.25165897 124.09419282 -2.6875 130.5 C-3.24953125 131.11488281 -3.8115625 131.72976562 -4.390625 132.36328125 C-7.3247599 135.23794044 -9.57663848 136.87904143 -13.75 137.125 C-18.93983855 136.3012161 -21.88083476 134.43571275 -25.4375 130.625 C-28.9674781 124.62403723 -29.08373248 118.7099588 -29.125 111.9375 C-29.15787109 111.04353516 -29.19074219 110.14957031 -29.22460938 109.22851562 C-29.36581226 90.44853221 -21.70771386 71.88516955 -15.5625 54.4375 C-7.1946121 32.40370401 -7.1946121 32.40370401 -4.5 9.25 C-4.51353516 8.39792969 -4.52707031 7.54585937 -4.54101562 6.66796875 C-4.57567198 4.61169146 -4.62944013 2.5557496 -4.6875 0.5 C-2.6875 -0.5 -2.6875 -0.5 0 0 Z " fill="#000000" transform="translate(165.6875,67.5)"/>
<path d="M0 0 C8.32114983 7.34219102 11.86211016 16.97258393 13.125 27.875 C13.64269912 38.83960177 13.64269912 38.83960177 12.125 41.875 C8.125 41.875 8.125 41.875 6 39.9375 C5.38125 39.256875 4.7625 38.57625 4.125 37.875 C1.01546621 36.3202331 -1.43766761 36.58855563 -4.875 36.875 C-18.89914875 43.88707437 -24.93620509 60.66889059 -29.64111328 74.5690918 C-31.42832064 79.99118329 -33.17420078 85.42519747 -34.875 90.875 C-33.225 91.205 -31.575 91.535 -29.875 91.875 C-29.66875 90.699375 -29.4625 89.52375 -29.25 88.3125 C-26.14109733 74.43190639 -19.45787286 59.60833032 -8.875 49.875 C-3.58040689 46.86670846 2.32730329 47.7517995 8.125 48.875 C15.74349656 51.31716614 21.66119714 56.75478216 25.4375 63.75 C35.19688908 85.87689076 24.36691916 114.99416579 16.21191406 136.15429688 C8.8515564 154.57833682 -2.60707943 180.20864271 -21.875 188.875 C-30.08978015 191.36877255 -37.40764813 189.85676071 -44.875 185.875 C-55.63657267 178.87785097 -60.76574688 166.67670335 -63.37988281 154.52880859 C-65.88663588 141.31775281 -66.24179856 128.28352502 -65.875 114.875 C-73.41448745 116.83733235 -80.34672424 119.35560382 -87.3125 122.8125 C-87.97378906 123.13605469 -88.63507813 123.45960938 -89.31640625 123.79296875 C-94.97976721 126.6819707 -100.50737658 129.93187299 -103.125 136 C-104.2506088 138.53755669 -105.31105833 140.52908749 -106.875 142.875 C-110.46411207 138.01233204 -111.3336357 132.54162632 -112.5625 126.75 C-112.78744141 125.76773438 -113.01238281 124.78546875 -113.24414062 123.7734375 C-115.21795107 114.65431326 -116.8141486 105.22045798 -111.875 96.875 C-105.76760643 90.59795661 -96.86625142 89.99270965 -88.51049805 89.7956543 C-84.63152252 89.77676686 -80.75393811 89.78780549 -76.875 89.8125 C-75.51432456 89.81752513 -74.15364733 89.82208624 -72.79296875 89.82617188 C-69.48693275 89.83789541 -66.18098999 89.85430573 -62.875 89.875 C-62.7625293 88.99054199 -62.65005859 88.10608398 -62.53417969 87.19482422 C-61.52118451 79.62781114 -60.20522879 72.34374521 -58.125 65 C-57.73139282 63.59137695 -57.73139282 63.59137695 -57.32983398 62.15429688 C-51.26223351 40.90411507 -42.28923769 14.82715994 -22.6328125 2.46484375 C-15.52871732 -1.16527082 -7.67181595 -3.00201494 0 0 Z M-8.875 82.875 C-11.42010277 87.27037687 -12.875 90.75900826 -12.875 95.875 C-12.09125 96.65875 -11.3075 97.4425 -10.5 98.25 C-6.16547807 102.58452193 -5.58438948 107.21167173 -5.5625 113.1875 C-5.69533215 120.46836224 -6.72228182 126.0047091 -11.125 131.875 C-14.53123366 134.35226084 -16.67441796 134.875 -20.875 134.875 C-25.47126528 133.05787186 -27.50600815 130.12284745 -29.875 125.875 C-31.76018525 120.61632535 -32.39851905 115.40468677 -32.875 109.875 C-34.87454746 109.83245644 -36.87541636 109.83419217 -38.875 109.875 C-42.13947927 113.13947927 -41.00181833 123.06660174 -41.0625 127.375 C-40.98410355 136.07700575 -40.40861212 142.95798485 -34.875 149.875 C-31.31683377 151.65408311 -27.75267457 151.48088665 -23.875 150.875 C-13.53185762 146.61194807 -7.25044765 135.99744838 -3.03515625 126.109375 C0.92050064 115.08148306 4.22018953 103.64059567 4.375 91.875 C4.41367188 90.1115625 4.41367188 90.1115625 4.453125 88.3125 C4.08980551 84.50629586 3.09632267 82.12840539 1.125 78.875 C-2.98838354 76.18002458 -6.19130998 79.6961907 -8.875 82.875 Z " fill="#000000" transform="translate(115.875,14.125)"/>
<path d="M0 0 C1.84093895 1.57666791 3.38383841 3.18181822 5 5 C5.37125 3.63875 5.37125 3.63875 5.75 2.25 C7.03981342 -1.10351489 8.31971042 -2.67708236 11 -5 C11.99 -4.67 12.98 -4.34 14 -4 C15.70658306 2.75090316 13.86895816 7.77735625 11.6875 14.25 C8.09835516 25.11093929 5.63270705 35.26217693 5.8125 46.75 C5.81314453 47.54792969 5.81378906 48.34585938 5.81445312 49.16796875 C5.84922329 53.87353118 6.22440086 58.35881477 7 63 C5 64 5 64 3.23046875 63.43359375 C-2.57967872 60.60073026 -6.32260856 57.64029632 -9.1015625 51.609375 C-12.04407927 43.0632828 -9.48768748 35.53045 -6.13476562 27.57104492 C-4.60871797 23.9158708 -3.52259433 20.98335354 -4 17 C-4.33 16.67 -4.66 16.34 -5 16 C-8.64359032 16.20624096 -11.21851011 16.45729869 -14.25 18.5625 C-18.79197966 24.88882882 -19.87517961 31.33714303 -19 39 C-16.70967759 48.35889542 -12.96214555 57.02911161 -8.9375 65.75 C-1.91793429 81.05453426 4.68263257 95.90102974 -1.09765625 112.7890625 C-4.09057727 120.12236682 -9.56259502 125.67564501 -16.54296875 129.33203125 C-26.12944846 133.2468563 -35.73628895 133.43114192 -45.3359375 129.43359375 C-56.47928166 123.4371021 -61.48713941 114.17611716 -65.8359375 102.81640625 C-66.41495961 100.8653535 -66.74248045 99.01968904 -67 97 C-67.13148438 96.03449219 -67.26296875 95.06898438 -67.3984375 94.07421875 C-69.05766719 78.09030612 -67.9176251 56.945374 -58.33984375 43.4375 C-56.00017847 40.92730519 -54.41100694 40.26752996 -51 40 C-45.15269163 41.70354653 -41.26461007 44.95469352 -38 50 C-37.1875 53.875 -37.1875 53.875 -37 57 C-37.86625 57.495 -38.7325 57.99 -39.625 58.5 C-45.92380731 62.72898647 -50.39300787 69.61047061 -52 77 C-53.0785202 84.96906595 -51.79959439 91.45509856 -47 98 C-44.29224777 100.6025968 -41.64410013 101.99711561 -37.7734375 102.00390625 C-35.32265215 101.75718514 -35.32265215 101.75718514 -32 101 C-22.58011972 80.14169367 -32.11205456 57.3513583 -38.19970703 36.8840332 C-40.88562935 27.20471643 -41.75497816 16.48217385 -37.3828125 7.1875 C-33.34295665 0.79676759 -27.86935956 -2.82846336 -20.578125 -4.62890625 C-13.04241145 -5.71359229 -6.3152102 -4.25681574 0 0 Z " fill="#000000" transform="translate(374,72)"/>
</svg>
